<svg width="512" height="512" viewBox="0 0 512 512" fill="none" xmlns="http://www.w3.org/2000/svg">
<path d="M497 91C488.716 91 482 97.716 482 106V111H436C427.716 111 421 117.716 421 126V151H391V136C391 127.716 384.284 121 376 121H361V91H386C394.284 91 401 84.284 401 76V30H406C414.284 30 421 23.284 421 15C421 6.716 414.284 0 406 0H366C357.716 0 351 6.716 351 15C351 23.284 357.716 30 366 30H371V61H346C337.716 61 331 67.716 331 76V121H301V56C301 47.716 294.284 41 286 41C277.716 41 271 47.716 271 56V121H241V56C241 47.716 234.284 41 226 41C217.716 41 211 47.716 211 56V121H181V76C181 67.716 174.284 61 166 61H141V30H146C154.284 30 161 23.284 161 15C161 6.716 154.284 0 146 0H106C97.716 0 91 6.716 91 15C91 23.284 97.716 30 106 30H111V76C111 84.284 117.716 91 126 91H151V121H136C127.716 121 121 127.716 121 136V151H91V126C91 117.716 84.284 111 76 111H30V106C30 97.716 23.284 91 15 91C6.716 91 0 97.716 0 106V146C0 154.284 6.716 161 15 161C23.284 161 30 154.284 30 146V141H61V166C61 174.284 67.716 181 76 181H121V211H56C47.716 211 41 217.716 41 226C41 234.284 47.716 241 56 241H121V271H56C47.716 271 41 277.716 41 286C41 294.284 47.716 301 56 301H121V331H76C67.716 331 61 337.716 61 346V371H30V366C30 357.716 23.284 351 15 351C6.716 351 0 357.716 0 366V406C0 414.284 6.716 421 15 421C23.284 421 30 414.284 30 406V401H76C84.284 401 91 394.284 91 386V361H121V376C121 384.284 127.716 391 136 391H151V421H126C117.716 421 111 427.716 111 436V482H106C97.716 482 91 488.716 91 497C91 505.284 97.716 512 106 512H146C154.284 512 161 505.284 161 497C161 488.716 154.284 482 146 482H141V451H166C174.284 451 181 444.284 181 436V391H211V456C211 464.284 217.716 471 226 471C234.284 471 241 464.284 241 456V391H271V456C271 464.284 277.716 471 286 471C294.284 471 301 464.284 301 456V391H331V436C331 444.284 337.716 451 346 451H371V482H366C357.716 482 351 488.716 351 497C351 505.284 357.716 512 366 512H406C414.284 512 421 505.284 421 497C421 488.716 414.284 482 406 482H401V436C401 427.716 394.284 421 386 421H361V391H376C384.284 391 391 384.284 391 376V361H421V386C421 394.284 427.716 401 436 401H482V406C482 414.284 488.716 421 497 421C505.284 421 512 414.284 512 406V366C512 357.716 505.284 351 497 351C488.716 351 482 357.716 482 366V371H451V346C451 337.716 444.284 331 436 331H391V301H456C464.284 301 471 294.284 471 286C471 277.716 464.284 271 456 271H391V241H456C464.284 241 471 234.284 471 226C471 217.716 464.284 211 456 211H391V181H436C444.284 181 451 174.284 451 166V141H482V146C482 154.284 488.716 161 497 161C505.284 161 512 154.284 512 146V106C512 97.716 505.284 91 497 91ZM361 361H151V151H361V361Z" fill="#F4F8F1"/>
<path d="M326 241H303.698C302.81 238.181 301.67 235.474 300.319 232.894L316.103 217.11C321.961 211.253 321.961 201.755 316.103 195.897C310.246 190.04 300.748 190.04 294.89 195.897L279.106 211.681C276.526 210.33 273.819 209.19 271 208.302V186C271 177.716 264.284 171 256 171C247.716 171 241 177.716 241 186V208.302C238.181 209.19 235.474 210.33 232.894 211.681L217.11 195.897C211.253 190.04 201.755 190.04 195.897 195.897C190.039 201.754 190.039 211.252 195.897 217.11L211.681 232.894C210.33 235.474 209.19 238.181 208.302 241H186C177.716 241 171 247.716 171 256C171 264.284 177.716 271 186 271H208.302C209.19 273.819 210.33 276.526 211.681 279.106L195.897 294.89C190.039 300.747 190.039 310.245 195.897 316.103C198.826 319.032 202.665 320.497 206.503 320.497C210.341 320.497 214.181 319.032 217.109 316.103L232.893 300.319C235.473 301.67 238.18 302.81 240.999 303.698V326C240.999 334.284 247.715 341 255.999 341C264.283 341 270.999 334.284 270.999 326V303.698C273.818 302.81 276.525 301.67 279.105 300.319L294.889 316.103C297.818 319.032 301.657 320.497 305.495 320.497C309.333 320.497 313.173 319.032 316.101 316.103C321.959 310.246 321.959 300.748 316.101 294.89L300.317 279.106C301.668 276.526 302.808 273.819 303.696 271H326C334.284 271 341 264.284 341 256C341 247.716 334.284 241 326 241V241ZM236 256C236 244.972 244.972 236 256 236C267.028 236 276 244.972 276 256C276 267.028 267.028 276 256 276C244.972 276 236 267.028 236 256Z" fill="#055BF4"/>
</svg>
