<svg id="Capa_1" enable-background="new 0 0 512 512" height="512" viewBox="0 0 512 512" width="512" xmlns="http://www.w3.org/2000/svg"><g><path d="m497 91c-8.284 0-15 6.716-15 15v5h-46c-8.284 0-15 6.716-15 15v25h-30v-15c0-8.284-6.716-15-15-15h-15v-30h25c8.284 0 15-6.716 15-15v-46h5c8.284 0 15-6.716 15-15s-6.716-15-15-15h-40c-8.284 0-15 6.716-15 15s6.716 15 15 15h5v31h-25c-8.284 0-15 6.716-15 15v45h-30v-65c0-8.284-6.716-15-15-15s-15 6.716-15 15v65h-30v-65c0-8.284-6.716-15-15-15s-15 6.716-15 15v65h-30v-45c0-8.284-6.716-15-15-15h-25v-31h5c8.284 0 15-6.716 15-15s-6.716-15-15-15h-40c-8.284 0-15 6.716-15 15s6.716 15 15 15h5v46c0 8.284 6.716 15 15 15h25v30h-15c-8.284 0-15 6.716-15 15v15h-30v-25c0-8.284-6.716-15-15-15h-46v-5c0-8.284-6.716-15-15-15s-15 6.716-15 15v40c0 8.284 6.716 15 15 15s15-6.716 15-15v-5h31v25c0 8.284 6.716 15 15 15h45v30h-65c-8.284 0-15 6.716-15 15s6.716 15 15 15h65v30h-65c-8.284 0-15 6.716-15 15s6.716 15 15 15h65v30h-45c-8.284 0-15 6.716-15 15v25h-31v-5c0-8.284-6.716-15-15-15s-15 6.716-15 15v40c0 8.284 6.716 15 15 15s15-6.716 15-15v-5h46c8.284 0 15-6.716 15-15v-25h30v15c0 8.284 6.716 15 15 15h15v30h-25c-8.284 0-15 6.716-15 15v46h-5c-8.284 0-15 6.716-15 15s6.716 15 15 15h40c8.284 0 15-6.716 15-15s-6.716-15-15-15h-5v-31h25c8.284 0 15-6.716 15-15v-45h30v65c0 8.284 6.716 15 15 15s15-6.716 15-15v-65h30v65c0 8.284 6.716 15 15 15s15-6.716 15-15v-65h30v45c0 8.284 6.716 15 15 15h25v31h-5c-8.284 0-15 6.716-15 15s6.716 15 15 15h40c8.284 0 15-6.716 15-15s-6.716-15-15-15h-5v-46c0-8.284-6.716-15-15-15h-25v-30h15c8.284 0 15-6.716 15-15v-15h30v25c0 8.284 6.716 15 15 15h46v5c0 8.284 6.716 15 15 15s15-6.716 15-15v-40c0-8.284-6.716-15-15-15s-15 6.716-15 15v5h-31v-25c0-8.284-6.716-15-15-15h-45v-30h65c8.284 0 15-6.716 15-15s-6.716-15-15-15h-65v-30h65c8.284 0 15-6.716 15-15s-6.716-15-15-15h-65v-30h45c8.284 0 15-6.716 15-15v-25h31v5c0 8.284 6.716 15 15 15s15-6.716 15-15v-40c0-8.284-6.716-15-15-15zm-136 270h-210v-210h210z"/><path d="m326 241h-22.302c-.888-2.819-2.028-5.526-3.379-8.106l15.784-15.784c5.858-5.857 5.858-15.355 0-21.213-5.857-5.857-15.355-5.857-21.213 0l-15.784 15.784c-2.58-1.351-5.287-2.491-8.106-3.379v-22.302c0-8.284-6.716-15-15-15s-15 6.716-15 15v22.302c-2.819.888-5.526 2.028-8.106 3.379l-15.784-15.784c-5.857-5.857-15.355-5.857-21.213 0s-5.858 15.355 0 21.213l15.784 15.784c-1.351 2.58-2.491 5.287-3.379 8.106h-22.302c-8.284 0-15 6.716-15 15s6.716 15 15 15h22.302c.888 2.819 2.028 5.526 3.379 8.106l-15.784 15.784c-5.858 5.857-5.858 15.355 0 21.213 2.929 2.929 6.768 4.394 10.606 4.394s7.678-1.465 10.606-4.394l15.784-15.784c2.58 1.351 5.287 2.491 8.106 3.379v22.302c0 8.284 6.716 15 15 15s15-6.716 15-15v-22.302c2.819-.888 5.526-2.028 8.106-3.379l15.784 15.784c2.929 2.929 6.768 4.394 10.606 4.394s7.678-1.465 10.606-4.394c5.858-5.857 5.858-15.355 0-21.213l-15.784-15.784c1.351-2.58 2.491-5.287 3.379-8.106h22.304c8.284 0 15-6.716 15-15s-6.716-15-15-15zm-90 15c0-11.028 8.972-20 20-20s20 8.972 20 20-8.972 20-20 20-20-8.972-20-20z"/></g></svg>